<?xml version="1.0" encoding="UTF-8" standalone="no"?>
<!-- Created with Inkscape (http://www.inkscape.org/) -->

<svg
   xmlns:dc="http://purl.org/dc/elements/1.1/"
   xmlns:cc="http://creativecommons.org/ns#"
   xmlns:rdf="http://www.w3.org/1999/02/22-rdf-syntax-ns#"
   xmlns:svg="http://www.w3.org/2000/svg"
   xmlns="http://www.w3.org/2000/svg"
   xmlns:sodipodi="http://sodipodi.sourceforge.net/DTD/sodipodi-0.dtd"
   xmlns:inkscape="http://www.inkscape.org/namespaces/inkscape"
   width="340.35999mm"
   height="149.01334mm"
   viewBox="0 0 1205.9999 528.00001"
   id="svg2"
   version="1.1"
   inkscape:version="0.91pre4 r13712"
   sodipodi:docname="Assinatura D. Catarina de Ãustria.svg">
  <defs
     id="defs4" />
  <sodipodi:namedview
     id="base"
     pagecolor="#ffffff"
     bordercolor="#666666"
     borderopacity="1.0"
     inkscape:pageopacity="0.0"
     inkscape:pageshadow="2"
     inkscape:zoom="0.35"
     inkscape:cx="580.85715"
     inkscape:cy="272.57145"
     inkscape:document-units="px"
     inkscape:current-layer="layer1"
     showgrid="false"
     fit-margin-top="0"
     fit-margin-left="0"
     fit-margin-right="0"
     fit-margin-bottom="0"
     inkscape:window-width="1366"
     inkscape:window-height="705"
     inkscape:window-x="-8"
     inkscape:window-y="-8"
     inkscape:window-maximized="1" />
  <metadata
     id="metadata7">
    <rdf:RDF>
      <cc:Work
         rdf:about="">
        <dc:format>image/svg+xml</dc:format>
        <dc:type
           rdf:resource="http://purl.org/dc/dcmitype/StillImage" />
        <dc:title></dc:title>
      </cc:Work>
    </rdf:RDF>
  </metadata>
  <g
     inkscape:label="Camada 1"
     inkscape:groupmode="layer"
     id="layer1"
     transform="translate(205.85715,-276.93365)">
    <path
       style="fill:#000000"
       d="m -151.35715,797.00371 c -2.2,-0.37378 -4.98292,-1.21746 -6.18426,-1.87483 -1.20134,-0.65738 -3.25833,-1.19523 -4.5711,-1.19523 -4.93674,0 -15.74464,-13.22113 -15.74464,-19.26016 0,-1.28691 -0.38657,-2.76734 -0.85905,-3.28984 -0.47248,-0.5225 -1.44219,-3.65 -2.15492,-6.95 -1.64718,-7.62657 -2.32474,-51.89796 -0.91063,-59.5 0.5627,-3.025 1.44529,-10.45 1.96132,-16.5 0.51602,-6.05 1.14337,-12.125 1.3941,-13.5 0.25073,-1.375 0.92114,-4.975 1.4898,-8 0.56866,-3.025 1.53085,-8.65 2.1382,-12.5 0.60735,-3.85 2.19258,-10.47179 3.52273,-14.71509 1.33015,-4.24331 2.41845,-8.70375 2.41845,-9.91211 0,-2.40332 1.76996,-8.73035 6.15201,-21.99149 1.5664,-4.74028 2.84799,-9.26412 2.84799,-10.05299 0,-0.78888 1.31682,-3.22491 2.92626,-5.4134 1.60944,-2.1885 3.24243,-5.31465 3.62886,-6.94701 0.61464,-2.59627 1.51424,-4.6479 5.5706,-12.70434 0.48085,-0.95504 0.87428,-2.39774 0.87428,-3.20599 0,-0.80826 1.29995,-3.67429 2.88878,-6.36895 1.58883,-2.69466 3.20626,-6.34487 3.5943,-8.11158 0.38803,-1.7667 1.33808,-3.45493 2.11122,-3.75161 0.77313,-0.29668 1.4057,-1.81471 1.4057,-3.37341 0,-1.5587 0.50249,-3.14455 1.11664,-3.52412 0.61415,-0.37956 2.65853,-3.89362 4.54306,-7.80901 5.41568,-11.25189 14.25636,-27.86271 15.73524,-29.56507 0.74242,-0.85461 2.13225,-3.23859 3.08851,-5.29774 0.95626,-2.05916 3.26368,-5.08291 5.1276,-6.71945 1.86392,-1.63655 3.40307,-3.55179 3.42033,-4.25609 0.0567,-2.31221 5.54797,-12.42968 9.17222,-16.8994 1.95384,-2.40963 3.86646,-5.40564 4.25026,-6.65779 0.38381,-1.25215 1.78456,-2.9887 3.11279,-3.85898 1.34177,-0.87917 2.8701,-3.27263 3.43916,-5.38595 0.56331,-2.09198 2.59304,-5.98043 4.51051,-8.64101 1.91747,-2.66058 3.8973,-5.77816 4.39962,-6.92795 0.50231,-1.14979 2.76006,-4.29979 5.01722,-7 2.25716,-2.70021 5.60222,-6.70947 7.43346,-8.90947 1.83125,-2.2 4.06796,-5.35 4.97046,-7 0.90251,-1.65 3.652,-5.475 6.10998,-8.5 2.45798,-3.025 7.58454,-9.55 11.39236,-14.5 3.80782,-4.95 8.32669,-10.32169 10.04194,-11.93709 1.71525,-1.6154 3.11864,-3.34162 3.11864,-3.83605 0,-0.49442 2.3625,-3.25382 5.25,-6.132 9.54718,-9.51635 12.75,-13.14163 12.75,-14.43176 0,-1.6821 -4.9594,-11.6188 -8.31655,-16.6631 -5.58791,-8.39615 -5.38296,-8.16568 -15.78428,-17.75 -1.04454,-0.9625 -2.23667,-1.75777 -2.64917,-1.76728 -0.4125,-0.009 -1.78315,-1.10688 -3.04589,-2.43863 -3.05066,-3.21736 -11.35352,-4.90146 -19.73809,-4.00355 -4.24567,0.45467 -6.93772,0.31288 -7.81041,-0.4114 -0.98096,-0.81412 -4.73246,-0.60388 -14.24366,0.79822 -15.02975,2.21563 -18.73927,3.0848 -30.91195,7.24289 -19.4547,6.64558 -22.23825,7.72854 -29,11.28263 -13.66466,7.18239 -17.87491,9.53393 -18.43398,10.2959 -0.31131,0.4243 -3.04102,2.05093 -6.06602,3.61473 -7.04185,3.64035 -10.87395,6.12341 -17.54524,11.36869 -4.4955,3.53457 -5.88324,4.1321 -8.41877,3.625 -2.65986,-0.53197 -3.03599,-1.02428 -3.03599,-3.97369 0,-2.79237 1.06588,-4.43855 6.25,-9.6527 3.4375,-3.45741 7.50442,-6.8343 9.03759,-7.5042 1.53318,-0.66989 3.33318,-1.67659 4,-2.23711 3.28355,-2.76006 10.67448,-7.9895 11.29182,-7.9895 0.38467,0 2.77416,-1.25984 5.30999,-2.79965 2.53583,-1.53981 6.8606,-3.62918 9.6106,-4.64304 2.75,-1.01386 8.00351,-3.57902 11.67447,-5.70035 3.67096,-2.12133 7.42559,-3.85696 8.34362,-3.85696 0.91803,0 1.89881,-0.87821 2.1795,-1.95159 0.33938,-1.29779 1.39679,-1.96686 3.15638,-1.9972 8.91769,-0.15373 23.30458,-3.34088 26.31028,-5.82856 0.91534,-0.75758 2.49034,-1.29078 3.5,-1.18488 4.37272,0.45862 7.10551,-0.17461 9.20839,-2.13374 1.96926,-1.83465 2.61233,-1.94579 5.15776,-0.89144 2.17781,0.90208 3.7065,0.92618 6.08802,0.096 4.80317,-1.67439 17.54809,-1.27798 25.08344,0.78018 7.62897,2.08373 19.77418,8.6872 24.86133,13.51735 1.89025,1.79476 5.01181,5.38111 6.93681,7.96969 1.925,2.58857 4.02906,5.2974 4.67568,6.01961 0.64663,0.72222 1.82821,2.87483 2.62574,4.78358 1.76841,4.23241 8.54861,13.82103 9.77297,13.82103 1.36941,0 11.33253,-6.57901 12.96896,-8.56388 0.80116,-0.97176 5.95665,-4.69208 11.45665,-8.26738 5.5,-3.57531 11.25778,-7.53892 12.79507,-8.80801 1.53728,-1.2691 4.68728,-2.84589 7,-3.50398 2.31271,-0.6581 5.10493,-1.90758 6.20493,-2.77664 8.41737,-6.65018 19.68481,-9.4826 37.24733,-9.36328 12.55357,0.0853 13.49624,0.23411 18,2.84159 11.63979,6.73893 17.16404,13.93994 20.66822,26.94158 1.93219,7.16904 1.7464,32.23742 -0.33211,44.81272 -0.71023,4.297 -1.06009,8.04396 -0.77747,8.32658 0.28262,0.28263 4.19424,0.19282 8.69248,-0.19957 6.39812,-0.55811 8.6001,-1.16582 10.11462,-2.79147 1.06479,-1.14292 1.71449,-2.65526 1.44377,-3.36075 -0.27073,-0.70548 0.39326,-2.78348 1.47551,-4.61777 1.08226,-1.83429 2.15506,-4.64787 2.38401,-6.25241 0.59944,-4.20097 2.0117,-8.37592 4.4503,-13.15596 1.17334,-2.29993 2.13631,-4.98712 2.13993,-5.97153 0.004,-0.98441 0.90066,-3.13984 1.99341,-4.78984 1.09275,-1.65 1.98979,-3.93376 1.99341,-5.07502 0.004,-1.14127 2.54743,-6.76627 5.65289,-12.5 3.10547,-5.73374 7.16383,-13.34998 9.01858,-16.92498 6.13154,-11.8184 10.20795,-17.68309 15.91935,-22.90299 5.82294,-5.32184 5.88503,-5.33725 12.11349,-3.00811 3.95341,1.47839 10.14882,7.94449 13.70536,14.30418 5.18387,9.26961 10.35834,31.40027 7.72272,33.02917 -0.54676,0.33792 -0.74184,2.16898 -0.4335,4.06904 0.82022,5.05445 -1.52058,19.23747 -4.1275,25.00871 -2.48401,5.49913 -3.86523,12.19629 -2.66798,12.93623 0.6234,0.38528 22.33011,-1.15394 41.60318,-2.95007 11.71216,-1.0915 30.25563,-3.43397 32,-4.04235 1.1,-0.38364 4.8137,-1.99044 8.25267,-3.57067 3.43897,-1.58023 7.82647,-2.87314 9.75,-2.87314 1.92353,0 3.49733,-0.45 3.49733,-1 0,-0.55 0.68912,-1 1.53138,-1 0.84227,0 1.79041,-0.675 2.10699,-1.5 1.5569,-4.0572 10.38693,0.015 14.12818,6.51553 3.16317,5.49613 2.97496,14.06556 -0.75739,34.48447 -0.6032,3.3 -1.34315,8.925 -1.64432,12.5 l -0.54759,6.5 4.14167,-6.28444 c 2.27792,-3.45644 5.02583,-8.34709 6.10647,-10.8681 1.08063,-2.52102 4.433,-8.29316 7.4497,-12.82698 3.0167,-4.53382 5.48491,-8.56692 5.48491,-8.96243 0,-0.66997 4.35786,-7.70875 9.50144,-15.34665 1.21805,-1.80873 3.68913,-4.37644 5.49128,-5.70603 3.05312,-2.25252 3.47147,-2.31669 6.13255,-0.94059 3.70938,1.91819 6.21626,5.78381 5.40613,8.33628 -0.34895,1.09944 0.0637,3.34913 0.91707,4.9993 0.90043,1.74123 1.55153,5.53907 1.55153,9.04998 0,3.32731 0.3375,6.04005 0.75,6.02831 0.81796,-0.0233 5.85262,-6.75167 8.25,-11.02541 4.85293,-8.65119 11.91186,-16.50315 17.35567,-19.30549 3.74433,-1.92749 7.56769,-0.62387 12.58015,4.28934 6.13291,6.01148 7.43406,10.85935 6.2241,23.18994 -1.05344,10.73553 -4.94613,26.70552 -7.15957,29.37255 -1.52296,1.83505 -4.17348,6.52614 -6.8478,12.11976 -1.0832,2.26564 -3.80105,5.41564 -6.03966,7 -2.59699,1.83801 -4.07792,3.66552 -4.09154,5.0491 -0.0133,1.35261 -1.24409,2.92665 -3.27135,4.18373 -1.7875,1.10841 -4.27307,2.97249 -5.52349,4.1424 -1.25043,1.16992 -3.95043,2.82552 -6,3.67912 -2.04958,0.8536 -5.10729,2.96372 -6.79492,4.68915 -1.68762,1.72544 -4.16262,3.63162 -5.5,4.23596 -1.33737,0.60435 -5.02906,2.29185 -8.20374,3.75 -3.17469,1.45816 -6.48022,2.6512 -7.34563,2.6512 -0.86542,0 -2.81292,0.88256 -4.3278,1.96125 -1.51487,1.07868 -4.57493,2.37031 -6.80012,2.87028 -2.2252,0.49997 -5.09285,1.6424 -6.37256,2.53875 -1.27971,0.89635 -3.16969,1.62972 -4.19995,1.62972 -1.03027,0 -3.06764,0.6392 -4.5275,1.42044 -5.51421,2.95092 -16.70669,6.73878 -21.58637,7.30546 -2.78736,0.32369 -5.97529,1.17566 -7.08429,1.89325 -3.04369,1.96945 -9.91832,4.21243 -14.711,4.79976 -2.34995,0.28797 -6.74128,1.43653 -9.75851,2.55234 -3.01724,1.11581 -6.39224,2.02652 -7.5,2.0238 -1.10777,-0.003 -4.03912,0.65304 -6.51412,1.45723 -12.16635,3.95318 -22.52889,5.67847 -44.66333,7.4361 -6.13983,0.48755 -11.67121,1.20034 -12.29195,1.58398 -0.62075,0.38365 -4.37225,1.0782 -8.33668,1.54347 -19.66109,2.30742 -25.44548,3.13471 -28.10726,4.01996 -1.59458,0.53031 -5.78666,0.96421 -9.31574,0.96421 -3.52909,0 -7.24074,0.44111 -8.24811,0.98024 -1.00737,0.53912 -8.51529,1.22597 -16.68426,1.52631 -18.90495,0.69507 -21.04333,1.05451 -22.52655,3.78648 -1.72823,3.18326 -3.88377,18.73073 -2.86166,20.64056 0.53296,0.99584 0.27842,2.90324 -0.67797,5.08044 -1.55395,3.53752 -2.71209,7.86251 -4.2807,15.98597 -0.47791,2.475 -1.55477,6.88365 -2.39302,9.79699 -0.83825,2.91335 -1.82717,7.97585 -2.1976,11.25 l -0.6735,5.95301 5.87916,0.10177 c 12.70806,0.21998 18.57761,0.81803 20.05396,2.04329 1.2781,1.06073 1.77149,0.9651 2.88625,-0.55942 1.29648,-1.77305 1.47801,-1.76015 5.07193,0.36032 3.12633,1.84457 4.08841,2.00593 5.96667,1.00071 1.68759,-0.90317 3.03126,-0.92239 5.45347,-0.078 1.89569,0.66084 6.1333,0.89159 10.33052,0.56252 9.642,-0.75595 11.61637,-1.23604 11.61637,-2.82461 0,-1.04868 1.75346,-1.29 7.75,-1.0666 4.2625,0.15879 11.28404,-0.10834 15.60342,-0.59364 6.41209,-0.72041 8.12149,-0.61429 9.31401,0.57823 1.28078,1.28079 1.81749,1.27603 4.35975,-0.0386 2.59587,-1.34237 3.32149,-1.33024 6.936,0.116 2.22025,0.88837 4.03682,1.95447 4.03682,2.36912 0,1.06794 -15.84479,2.21768 -19.74752,1.43293 -2.02043,-0.40626 -3.81033,-0.1859 -4.73701,0.58317 -0.86298,0.71621 -2.55917,0.9677 -4.03258,0.5979 -1.39869,-0.35105 -6.46703,0.0985 -11.26298,0.99911 -5.00123,0.9391 -10.94171,1.40948 -13.92981,1.10299 -2.86544,-0.29391 -8.70907,0.0733 -12.98584,0.81595 -5.35757,0.93036 -8.16094,1.0308 -9.01385,0.32295 -0.73624,-0.61103 -3.57871,-0.77667 -7.01415,-0.40874 -3.17694,0.34025 -10.34089,1.08586 -15.91987,1.65692 -5.57899,0.57105 -12.30847,1.86005 -14.95441,2.86443 -4.49608,1.70667 -4.88903,2.14458 -6.00658,6.69374 -3.39511,13.82031 -5.41444,23.06287 -5.40544,24.74094 0.006,1.03034 -1.56496,6.58017 -3.48996,12.33295 -1.925,5.75278 -3.5,11.30539 -3.5,12.33914 0,4.06252 -4.45757,13.60619 -8.03575,17.20456 -5.40997,5.4405 -9.32843,5.24832 -14.83689,-0.72766 -2.9788,-3.23164 -4.12736,-5.33704 -4.12736,-7.56577 0,-1.69844 -0.52895,-4.071 -1.17544,-5.27234 -1.04864,-1.94864 -2.25753,-16.24222 -2.0454,-24.18426 0.0441,-1.65 0.0987,-9.975 0.12139,-18.5 0.0471,-17.68381 -0.31071,-18.54935 -7.29657,-17.65174 -2.14281,0.27533 -9.34281,0.0633 -16,-0.47111 -6.65719,-0.53444 -16.58654,-1.06293 -22.06522,-1.17443 -9.71108,-0.19763 -9.99311,-0.13994 -11.23067,2.29728 -0.6982,1.375 -3.64631,7 -6.55137,12.5 -2.90505,5.5 -6.55579,13.0173 -8.11275,16.7051 -1.55696,3.68781 -3.4721,7.2373 -4.25586,7.88776 -0.78376,0.65046 -2.17993,2.80817 -3.10261,4.7949 -0.92268,1.98673 -2.26437,3.9721 -2.98155,4.41193 -0.71717,0.43983 -1.30395,1.60848 -1.30395,2.59699 0,0.98852 -0.9,2.83501 -2,4.10332 -1.1,1.26831 -2,2.84745 -2,3.50921 0,0.66175 -1.47915,3.1804 -3.28701,5.59699 -1.80786,2.41659 -4.15036,6.4188 -5.20556,8.8938 -1.0552,2.475 -2.95105,6.06696 -4.21299,7.98213 -1.26194,1.91518 -2.29444,4.18958 -2.29444,5.05422 0,0.86465 -1.35,3.70082 -3,6.3026 -1.65,2.60178 -3,5.16488 -3,5.69578 0,0.5309 -0.45965,0.96527 -1.02144,0.96527 -0.56179,0 -1.5206,1.2375 -2.1307,2.75 -2.01698,5.00037 -4.29292,9.25 -4.95394,9.25 -0.35821,0 -1.20863,1.4625 -1.88984,3.25 -0.68122,1.7875 -1.86081,4.66801 -2.62132,6.40113 -0.76052,1.73312 -1.38444,3.53312 -1.3865,4 -0.002,0.46688 -1.01455,2.39714 -2.25,4.28946 -4.45002,6.81609 -6.71778,10.62789 -8.66183,14.55941 -1.08786,2.2 -2.78938,4.72405 -3.78118,5.609 -3.79743,3.38835 -7.20803,8.07245 -8.31089,11.41416 -0.63111,1.91226 -1.6358,3.47684 -2.23266,3.47684 -0.59685,0 -5.27081,4.275 -10.38656,9.5 -5.11576,5.225 -9.75187,9.5 -10.30246,9.5 -0.5506,0 -2.47925,1.28278 -4.28588,2.85063 -1.80664,1.56784 -6.8848,4.54355 -11.2848,6.61268 -4.4,2.06913 -9.27397,4.38635 -10.83104,5.14937 -2.99126,1.46583 -5.64614,1.56562 -12.16896,0.45738 z m 15.21061,-10.30349 c 5.90881,-3.38546 22.28939,-15.02781 22.28939,-15.84198 0,-0.50852 0.46899,-0.92459 1.04221,-0.92459 2.31534,0 15.20034,-12.53773 17.47085,-17 0.9795,-1.925 3.28976,-5.2685 5.13392,-7.43 1.84416,-2.1615 3.35302,-4.27644 3.35302,-4.69987 0,-1.05104 5.4552,-9.18321 10.6877,-15.93237 2.37176,-3.05922 4.31714,-6.43422 4.32306,-7.5 0.006,-1.06577 2.52635,-6.43776 5.60096,-11.93776 3.07461,-5.5 8.08295,-14.725 11.12965,-20.5 3.04669,-5.775 5.88217,-10.95 6.30106,-11.5 0.41889,-0.55 3.10148,-5.49482 5.96131,-10.98848 2.85983,-5.49367 6.05392,-11.18813 7.09798,-12.65437 1.04405,-1.46624 1.89828,-3.1044 1.89828,-3.64037 0,-0.88447 2.76061,-5.65232 8.81058,-15.21678 1.21765,-1.925 2.69518,-5.25964 3.28338,-7.41032 0.58821,-2.15068 2.29885,-5.52568 3.80143,-7.5 1.50258,-1.97432 3.31134,-5.38968 4.01946,-7.58968 0.70812,-2.2 2.36697,-5.67785 3.68632,-7.72856 1.31936,-2.05071 2.39883,-4.3304 2.39883,-5.06599 0,-1.26691 -5.63684,-3.85951 -14.5,-6.66908 -3.58748,-1.13721 -6.7549,-2.8065 -18.10117,-9.53962 -7.48883,-4.44403 -16.44039,-12.29625 -19.82017,-17.38606 -2.9965,-4.51259 -3.57866,-6.26679 -3.57866,-10.78333 0,-4.82139 0.36803,-5.76205 3.46667,-8.86069 1.90666,-1.90667 3.91615,-3.46667 4.46552,-3.46667 0.54937,0 2.37988,-1.35 4.06781,-3 1.68793,-1.65 3.97579,-3 5.08414,-3 1.10835,0 3.34283,-0.68656 4.96552,-1.52568 1.62269,-0.83912 2.95034,-1.23402 2.95034,-0.87756 0,0.35647 0.61148,0.14065 1.35885,-0.47961 1.94221,-1.6119 12.47752,-5.10908 15.5477,-5.16104 1.4264,-0.0241 4.39345,-0.73456 6.59345,-1.5787 2.2,-0.84414 7.15,-2.20503 11,-3.02421 3.85,-0.81918 8.48549,-2.16579 10.30109,-2.99247 1.8156,-0.82668 4.89226,-1.76126 6.83701,-2.07685 3.78828,-0.61476 3.99164,-0.88564 4.78208,-6.37006 0.28428,-1.9724 0.73303,-4.2224 0.99724,-5 0.2642,-0.7776 0.71765,-6.18657 1.00765,-12.01994 0.29,-5.83336 0.79765,-11.3107 1.1281,-12.17186 0.33046,-0.86115 0.085,-2.52967 -0.54556,-3.7078 -0.76242,-1.4246 -0.81533,-2.54097 -0.15797,-3.33305 1.09072,-1.31424 -0.1248,-26.49741 -1.82245,-37.75774 -1.15465,-7.65866 -5.47033,-23.08827 -7.67037,-27.42343 -0.83735,-1.65 -1.72998,-4.07312 -1.98362,-5.38472 -0.25365,-1.3116 -1.11638,-3.65175 -1.91719,-5.20034 -0.8008,-1.54859 -1.45601,-3.44109 -1.45601,-4.20556 0,-1.23079 -2.81112,-7.50765 -7.81927,-17.45938 -1.50697,-2.99452 -4.18073,-4.4836 -4.18073,-2.32836 0,0.5069 -1.99027,2.1944 -4.42281,3.75 -2.43255,1.5556 -5.47005,4.51655 -6.75,6.57989 -1.27996,2.06334 -3.79343,4.63787 -5.5855,5.72118 -1.79206,1.0833 -3.75059,2.99511 -4.35228,4.24846 -0.60169,1.25336 -2.96046,3.63902 -5.2417,5.30147 -2.71827,1.98093 -4.48777,4.22105 -5.13445,6.5 -0.61029,2.15069 -3.56703,6.07089 -7.75,10.27536 -3.71979,3.73889 -6.76326,7.36312 -6.76326,8.05383 0,0.69071 -1.61339,2.80661 -3.58532,4.702 -1.97192,1.89539 -4.25151,4.71854 -5.06575,6.27365 -0.81423,1.55511 -2.91334,4.75028 -4.66468,7.10036 -1.75134,2.35009 -3.73985,5.12772 -4.41892,6.17252 -0.67908,1.0448 -2.34744,3.47464 -3.70748,5.39964 -1.36005,1.925 -3.21732,4.85 -4.12728,6.5 -0.90996,1.65 -2.93105,4.35 -4.4913,6 -1.56025,1.65 -3.82317,5.25 -5.02871,8 -1.20554,2.75 -3.36609,6.44595 -4.80123,8.21323 -5.77948,7.11708 -7.28268,9.43266 -10.27645,15.83021 -1.71773,3.67071 -5.23249,10.33759 -7.81057,14.81529 -5.26134,9.13806 -6.30805,11.06247 -7.96361,14.64127 -2.27523,4.91833 -4.34434,8.53165 -6.01267,10.5 -1.79596,2.11894 -7.04603,13.52182 -7.04603,15.30362 0,0.57944 -0.5625,1.64817 -1.25,2.37495 -0.6875,0.72679 -1.87603,3.12143 -2.64117,5.32143 -0.76515,2.2 -3.05412,7.6 -5.0866,12 -2.03248,4.4 -4.71723,10.7 -5.96611,14 -1.24888,3.3 -3.11313,7.8 -4.14276,10 -2.21064,4.72341 -7.91336,27.49003 -7.91336,31.592 0,1.56803 -1.11498,5.37213 -2.47772,8.45355 -1.63978,3.70783 -2.68033,8.32936 -3.07681,13.66543 -0.3295,4.43457 -1.01452,9.15554 -1.52228,10.49104 -0.50775,1.3355 -0.92319,3.64876 -0.92319,5.14057 0,1.49182 -0.73602,3.76321 -1.63559,5.04754 -1.28892,1.84018 -1.51432,3.78179 -1.0634,9.1603 0.40381,4.8166 0.22299,6.9431 -0.61441,7.2259 -0.80842,0.27301 -1.22431,3.87828 -1.30493,11.3122 -0.0651,6.00131 -0.37821,14.04472 -0.69584,17.87426 -0.34369,4.14357 -0.16557,7.45916 0.43991,8.18872 0.5906,0.71163 0.9192,5.97124 0.78327,12.53721 -0.19807,9.56776 0.0806,12.01301 1.80824,15.86384 1.12333,2.5039 2.57513,8.55572 3.22624,13.44849 1.3009,9.77572 1.06033,9.14167 5.88055,15.49895 2.04396,2.69575 4.46726,4.71077 6.04397,5.02567 5.611,1.12065 15.6899,0.97429 17.8426,-0.2591 z M 75.62935,656.52965 c 1.93242,-4.0722 3.5135,-8.10532 3.5135,-8.96249 0,-1.42334 2.92098,-10.27166 4.99583,-15.13351 0.97637,-2.28788 1.92738,-6.4344 2.63753,-11.5 0.26986,-1.925 0.88209,-4.4 1.36051,-5.5 0.47841,-1.1 1.14687,-3.575 1.48544,-5.5 0.33858,-1.925 0.85664,-4.86106 1.15124,-6.52458 l 0.53563,-3.02458 -7.83309,0.27202 c -4.3082,0.14962 -9.18309,0.64149 -10.83309,1.09306 l -3,0.82102 -0.68627,9.93153 c -0.70022,10.1333 -0.10407,46.51141 0.81416,49.68153 0.9196,3.17486 2.30209,1.84065 5.85861,-5.654 z m -19.06023,-66.846 c 0.76665,-1.7875 1.87491,-7.525 2.4628,-12.75 1.69434,-15.05876 2.59729,-19.56714 4.50077,-22.47222 1.02903,-1.5705 1.54627,-3.64618 1.22629,-4.9211 -0.30437,-1.21271 0.55748,-5.48843 1.91523,-9.5016 1.35775,-4.01316 2.46864,-8.28855 2.46864,-9.50087 0,-1.21232 0.42697,-2.63171 0.94881,-3.15421 0.52185,-0.5225 1.23969,-2.77075 1.59521,-4.99611 0.59133,-3.70144 0.41823,-4.15006 -2.032,-5.26646 -3.21166,-1.46333 -16.10528,-0.70236 -24.85512,1.46693 -3.2137,0.79676 -7.0387,1.33202 -8.5,1.18947 -1.46129,-0.14255 -4.53466,0.29227 -6.8297,0.96625 -3.85671,1.13261 -4.2587,1.58391 -5.30676,5.95768 -2.47449,10.32656 -2.88224,11.91141 -4.30486,16.73224 -0.81152,2.75 -2.41403,7.7 -3.56113,11 -1.1471,3.3 -2.96856,8.7 -4.04769,12 -1.07912,3.3 -2.97284,8.78462 -4.20826,12.18804 -1.75683,4.83982 -1.98919,6.49776 -1.06648,7.60955 1.50464,1.81299 14.95068,4.14597 19.33387,3.35456 1.83376,-0.3311 5.13411,-0.10597 7.33411,0.50027 2.2,0.60624 6.11163,1.16909 8.69252,1.25078 2.58089,0.0817 5.01839,0.47438 5.41667,0.87266 0.39828,0.39827 2.23142,0.72414 4.07366,0.72414 2.82633,0 3.56723,-0.50763 4.74342,-3.25 z m 37.01298,0.30042 c 0.85841,-0.71242 1.57181,-2.02771 1.58534,-2.92286 0.0135,-0.89516 0.91352,-4.28491 2,-7.53279 1.08647,-3.24787 1.97541,-7.32037 1.97541,-9.05 0,-1.72962 0.38452,-3.57227 0.85448,-4.09477 0.46997,-0.5225 1.64783,-5.225 2.61748,-10.45 0.96964,-5.225 2.38512,-11.01746 3.14551,-12.87212 0.76039,-1.85467 1.39312,-4.55467 1.40607,-6 0.0129,-1.44534 0.90574,-5.94501 1.98399,-9.99927 1.07825,-4.05427 1.70154,-7.79033 1.38509,-8.30235 -0.31644,-0.51202 -2.89674,-0.91 -5.73399,-0.88439 -2.83725,0.0256 -7.53413,-0.22014 -10.43753,-0.54611 -5.84896,-0.65669 -8.20058,0.47645 -8.2529,3.97668 -0.0175,1.17016 -0.6925,3.00107 -1.5,4.06869 -0.80751,1.06762 -1.4682,3.58012 -1.4682,5.58333 0,2.00322 -0.30915,3.95135 -0.68699,4.3292 -1.04432,1.04431 -4.18997,13.73959 -4.25536,17.17383 -0.0317,1.66513 -0.75318,4.0205 -1.60327,5.23418 -1.36489,1.94865 -3.77668,13.12636 -5.01409,23.23833 -0.23557,1.925 -0.66132,4.88218 -0.94612,6.57151 -0.28481,1.68932 -0.22893,3.36039 0.12416,3.71349 1.2054,1.2054 21.18317,0.12463 22.82092,-1.23458 z m -95.03126,-9.34035 c 0.34783,-1.73915 1.45596,-4.97288 2.46252,-7.18608 3.3218,-7.3039 4.9878,-11.97589 5.58898,-15.67333 0.32635,-2.00714 1.24826,-4.96209 2.04867,-6.56657 1.42932,-2.86513 4.27784,-15.15571 5.2217,-22.53018 l 0.47947,-3.7461 -7.85467,0.55764 c -4.32006,0.30669 -8.75466,0.78166 -9.85466,1.05547 -11.51897,2.86731 -16.52461,4.32679 -19.03178,5.54902 -1.63252,0.79584 -7.04188,2.71444 -12.02079,4.26354 -9.9497,3.09568 -16.10085,7.55543 -17.04908,12.36105 -0.78491,3.97794 5.49219,12.62242 13.52174,18.62141 6.03807,4.51113 21.40275,12.58406 23.95042,12.58406 0.59169,0 2.98631,1.07311 5.32138,2.38468 5.05629,2.84006 6.37434,2.53418 7.2161,-1.67461 z m 38.09201,-67.13848 c 3.85,-0.29124 11.05,-0.79804 16,-1.12624 4.95,-0.32819 10.04027,-1.10356 11.31171,-1.72304 1.7457,-0.85055 2.79193,-0.82642 4.27303,0.0985 2.36647,1.47788 4.80668,0.40394 7.83771,-3.44939 2.8154,-3.5792 2.73569,-7.19209 -0.17245,-7.8163 -2.98719,-0.64119 -12.44079,-1.50082 -16.47478,-1.49809 -6.13442,0.004 -17.71752,-7.36564 -23.59424,-15.01193 -1.66796,-2.1702 -3.36137,-3.74267 -3.76313,-3.49437 -0.79331,0.49029 -1.78927,6.75328 -2.45681,15.44923 -0.23221,3.025 -1.0347,8.53374 -1.78332,12.24163 -1.40039,6.93614 -1.31169,7.89453 0.67005,7.24002 0.63372,-0.2093 4.30223,-0.61883 8.15223,-0.91006 z m 73.30619,-2.46786 c 1.94869,-1.04291 4.76205,-5.91642 6.55423,-11.35373 0.31724,-0.9625 1.31408,-1.75 2.21518,-1.75 0.90924,0 1.41708,0.55629 1.14111,1.25 -0.27349,0.6875 -1.27253,3.16757 -2.22008,5.51127 -2.46953,6.10823 -1.20978,7.25602 7.87581,7.17581 11.58697,-0.10229 38.53548,-3.30003 42.12756,-4.9989 1.1,-0.52024 3.35,-0.9251 5,-0.89967 2.68304,0.0413 12.64181,-0.938 27,-2.65515 2.75,-0.32889 5.45,-0.93701 6,-1.3514 0.55,-0.41438 2.8,-0.80585 5,-0.86993 5.89331,-0.17166 9.2621,-1.09969 9.88508,-2.72314 0.6296,-1.64072 4.1846,-1.94418 5.11626,-0.43672 0.81956,1.32607 8.53826,0.13056 10.58157,-1.63893 1.10284,-0.95505 2.95422,-1.18282 6.10447,-0.75104 3.11334,0.42674 5.57907,0.1339 7.91709,-0.94025 1.86754,-0.85801 5.64553,-1.86073 8.39553,-2.22828 6.60088,-0.88222 17.01824,-3.22928 22,-4.95665 2.2,-0.76283 7.76603,-2.73993 12.36895,-4.39355 4.60292,-1.65363 10.45292,-3.29148 13,-3.63967 2.54708,-0.3482 5.85852,-1.4988 7.35876,-2.5569 1.50024,-1.0581 6.00024,-3.06811 10,-4.46668 8.29208,-2.89946 8.74072,-3.0782 18.35205,-7.31176 3.89386,-1.71515 8.05636,-3.11846 9.25,-3.11846 1.19363,0 2.17024,-0.41278 2.17024,-0.91729 0,-0.50451 2.1375,-1.70453 4.75,-2.66672 2.6125,-0.96218 5.65,-2.52319 6.75,-3.46892 1.82596,-1.56986 14.25922,-9.92553 18.65339,-12.53585 3.53908,-2.10236 6.12309,-4.96994 10.28278,-11.41122 9.52218,-14.74509 14.05377,-23.65071 16.18068,-31.79879 2.14916,-8.23335 1.58605,-27.20121 -0.80755,-27.20121 -0.51096,0 -3.34568,2.28558 -6.29938,5.07907 -5.18055,4.89954 -11.55836,14.24023 -13.02931,19.0822 -0.39076,1.2863 -1.50316,3.23873 -2.472,4.33873 -0.96883,1.1 -2.05888,3.66821 -2.42233,5.70714 -0.77581,4.35222 -3.92691,11.76318 -7.23808,17.02299 -1.29151,2.05157 -2.3482,4.82895 -2.3482,6.17195 0,3.89551 -4.19753,12.28339 -6.96507,13.91821 -2.6636,1.57343 -7.48202,1.24717 -9.89726,-0.67016 -1.65968,-1.31752 -0.79699,-10.99493 1.25999,-14.13428 0.72935,-1.11313 1.5507,-3.59707 1.82521,-5.51986 0.27452,-1.9228 1.29758,-6.42099 2.27348,-9.99599 1.19201,-4.36668 1.81199,-10.43843 1.88901,-18.5 0.17941,-18.77907 -1.75817,-22.03974 -6.38536,-10.74572 -1.375,3.35609 -3.21339,6.92183 -4.08531,7.92385 -0.87191,1.00203 -2.1456,3.23992 -2.8304,4.97309 -0.68481,1.73318 -2.33392,4.17412 -3.6647,5.42432 -1.33077,1.2502 -2.41703,2.98215 -2.4139,3.84877 0.003,0.86663 -4.32692,10.23556 -9.62234,20.81985 -7.15036,14.29189 -10.62664,20.14635 -13.50857,22.75 -4.46219,4.03132 -5.99331,4.26969 -9.83847,1.5317 -5.0338,-3.58439 -4.91287,-8.17659 0.96192,-36.52586 2.48902,-12.01098 3.78208,-20.49728 4.45683,-29.25 l 0.5589,-7.25 -2.75698,3e-5 c -1.94407,2e-5 -3.56783,1.01626 -5.50698,3.44657 -1.5125,1.8956 -2.75,4.08371 -2.75,4.86247 0,0.77875 -1.29801,3.04926 -2.88447,5.04556 -1.58646,1.9963 -4.81056,7.34568 -7.16465,11.8875 -4.08581,7.88287 -7.12456,11.75787 -9.22047,11.75787 -0.52996,0 -0.71999,1.2375 -0.42229,2.75 0.4133,2.0998 -0.12775,3.45931 -2.28838,5.75 -1.55632,1.65 -4.4249,6.15823 -6.37463,10.0183 -4.23824,8.39086 -15.14281,20.4817 -18.47218,20.4817 -1.22963,0 -2.48676,0.65426 -2.79362,1.45391 -0.61551,1.604 -6.80104,5.54933 -8.68647,5.54051 -4.59103,-0.0215 -8.375,-2.25392 -11.06567,-6.52848 -2.69539,-4.28207 -2.8449,-5.07048 -2.4207,-12.76495 0.46106,-8.36323 3.45733,-16.51722 7.21552,-19.63625 0.86791,-0.7203 1.59232,-2.26703 1.60981,-3.43718 0.0462,-3.09104 4.867,-8.9995 20.2182,-24.77985 4.8125,-4.94703 8.75,-9.43194 8.75,-9.96647 0,-0.54013 -1.44377,-0.73293 -3.25,-0.43401 -4.34612,0.71926 -21.13054,2.33197 -32.20196,3.09407 -4.92358,0.33892 -10.09858,1.20256 -11.5,1.91921 -1.40142,0.71665 -4.57304,1.61408 -7.04804,1.99429 -2.475,0.38022 -5.28603,0.91329 -6.24673,1.1846 -2.12036,0.59882 -6.75327,8.2286 -6.75327,11.12173 0,1.14698 -1.125,3.42241 -2.5,5.0565 -1.375,1.6341 -2.5,3.63852 -2.5,4.45428 0,0.81576 -0.70789,2.0707 -1.57309,2.78875 -0.8652,0.71805 -2.45969,3.04343 -3.54331,5.1675 -1.08362,2.12408 -3.42903,5.52918 -5.21202,7.5669 -1.78299,2.03772 -4.4254,5.50494 -5.87201,7.70494 -5.53902,8.42369 -28.73645,29.43022 -32.59398,29.51562 -0.38807,0.009 -2.73059,1.82859 -5.20559,4.04444 -2.475,2.21585 -6.075,4.88182 -8,5.92439 -1.925,1.04256 -6.875,4.31047 -11,7.26203 -5.96505,4.26816 -7.50922,5.89738 -7.54507,7.96061 -0.0499,2.87268 -2.20344,6.06637 -3.53548,5.24313 -0.46967,-0.29027 -0.579,-1.90246 -0.24297,-3.58264 l 0.61098,-3.05488 -4.27521,2.18105 c -5.33422,2.72132 -12.66545,4.9812 -16.20555,4.99543 -2.98001,0.012 -5.8067,3.18142 -5.8067,6.51082 0,1.13024 -0.65482,2.98987 -1.45516,4.13251 -1.34311,1.91757 -1.24686,2.17461 1.25,3.3384 1.48784,0.69348 3.38016,1.59844 4.20516,2.01103 2.17495,1.0877 11.20627,0.51322 13.80619,-0.87821 z M 81.9741,489.43573 c 0.44181,-0.44181 5.78221,-15.45709 7.11403,-20.00208 1.27972,-4.36723 3.12881,-9.40648 5.24104,-14.28323 1.02034,-2.35577 2.51119,-7.30577 3.31299,-11 2.29148,-10.55777 4.30645,-17.42253 5.44941,-18.56549 0.5782,-0.5782 1.05128,-2.2547 1.05128,-3.72555 0,-1.47085 0.6798,-4.60105 1.51068,-6.95599 0.83087,-2.35495 1.38765,-4.40474 1.23728,-4.55511 -0.64037,-0.64037 -10.3782,1.91908 -11.74796,3.0878 -0.825,0.70391 -3.525,1.60684 -6,2.00651 -4.85411,0.78386 -16.80381,6.46274 -21.22605,10.0873 -1.49932,1.22888 -4.10207,2.53655 -5.78388,2.90594 -1.68181,0.36939 -3.75612,1.73733 -4.60958,3.03988 -0.85346,1.30254 -3.53822,3.53241 -5.96612,4.95525 -2.4279,1.42285 -4.41437,3.09099 -4.41437,3.70699 0,0.61599 -1.22861,3.18452 -2.73025,5.70784 -3.14203,5.27981 -5.23636,10.70331 -5.24705,13.58786 -0.023,6.19404 6.79741,21.47604 9.59244,21.49317 0.61333,0.004 2.25127,0.90051 3.63987,1.99278 4.05918,3.19295 12.3991,7.0569 16.99355,7.87325 3.66962,0.65201 11.40821,-0.18264 12.58269,-1.35712 z m 23.66875,-3.99122 c 1.65,-0.68157 5.025,-2.06079 7.5,-3.06493 7.41833,-3.00972 8.22793,-4.12422 10.08021,-13.87641 0.51506,-2.71176 1.72022,-5.79896 2.67813,-6.86045 1.1675,-1.29374 1.74166,-3.58338 1.74166,-6.94544 0,-3.65307 0.46789,-5.3147 1.72248,-6.11707 1.273,-0.81415 2.03558,-0.7885 2.92235,0.0983 0.93318,0.93318 0.84429,1.92843 -0.3999,4.47753 -0.87989,1.8027 -2.13481,6.65264 -2.78872,10.77764 -0.65391,4.125 -1.67187,8.09889 -2.26213,8.83088 -1.92651,2.38904 6.58305,0.17399 8.80592,-2.2922 1.1,-1.22041 5.00152,-4.42837 8.67005,-7.1288 8.48353,-6.2448 27.67526,-23.43527 28.36802,-25.40988 0.28944,-0.825 2.53678,-3.07291 4.99409,-4.99536 2.45731,-1.92244 4.46784,-4.0278 4.46784,-4.67857 0,-0.65077 0.58092,-1.77786 1.29092,-2.50464 2.51221,-2.57157 4.70908,-6.28833 4.70908,-7.96701 0,-0.93532 1.35,-3.05057 3,-4.70057 1.97374,-1.97375 3,-4.00644 3,-5.94207 0,-1.61813 0.82846,-4.01525 1.84103,-5.32692 1.01256,-1.31167 2.08651,-3.28486 2.38654,-4.38486 0.30004,-1.1 0.86972,-2.7875 1.26597,-3.75 0.95753,-2.3259 -1.91259,-2.30394 -16.06865,0.12293 -6.00869,1.03012 -14.74989,2.43755 -19.42489,3.12763 -4.675,0.69008 -9.8956,1.82135 -11.60134,2.51393 -3.47119,1.4094 -7.39866,6.29417 -7.39866,9.20205 0,1.04929 -0.9,3.77059 -2,6.04732 -1.1,2.27674 -2.01431,5.39877 -2.0318,6.93783 -0.0175,1.53907 -0.6925,3.67182 -1.5,4.73944 -0.80751,1.06762 -1.4682,2.90512 -1.4682,4.08333 0,1.17822 -0.3375,2.47724 -0.75,2.88673 -0.4125,0.40949 -1.2,3.52199 -1.75,6.91667 -0.91545,5.65028 -1.21138,6.17214 -3.5,6.17214 -1.86772,0 -2.58464,-0.59822 -2.83466,-2.36534 -0.18407,-1.30093 0.15343,-2.85343 0.75,-3.45 0.59656,-0.59656 1.09724,-2.23216 1.11261,-3.63466 0.0154,-1.4025 1.39437,-6.375 3.06443,-11.05 1.67007,-4.675 3.17862,-9.625 3.35233,-11 0.1737,-1.375 0.79717,-4.525 1.38548,-7 0.5883,-2.475 0.71543,-4.85425 0.28251,-5.28722 -0.78066,-0.78074 -14.57763,3.68866 -16.73791,5.4221 -0.61887,0.49658 -1.42337,2.76748 -1.78779,5.04643 -0.75879,4.7452 -4.98918,18.73389 -7.13778,23.60262 -0.79707,1.80616 -1.44922,4.61866 -1.44922,6.25 0,1.74336 -0.92752,3.89253 -2.25,5.21348 -1.2375,1.23608 -2.33831,3.29713 -2.44625,4.58012 -0.33289,3.95697 -3.51769,12.62872 -4.94781,13.47216 -0.75436,0.4449 -1.35594,2.44765 -1.35594,4.51412 0,2.04293 -0.9,6.17672 -2,9.18619 -1.1,3.00947 -2,6.04919 -2,6.75494 0,1.40638 3.22697,0.93407 8.5,-1.24408 z M 256.22141,445.9784 c 5.36694,-3.58721 13.32955,-11.80568 17.87437,-18.44874 1.84527,-2.69719 4.16073,-5.70967 5.14546,-6.6944 0.98473,-0.98473 2.99145,-4.17793 4.45938,-7.09601 4.68651,-9.31626 6.24646,-11.96831 8.36836,-14.22697 1.14063,-1.21414 2.07387,-2.98015 2.07387,-3.92447 0,-0.94431 0.675,-1.97595 1.5,-2.29253 0.825,-0.31659 1.5,-1.11504 1.5,-1.77434 0,-0.6593 1.125,-2.72358 2.5,-4.58729 1.375,-1.86371 2.5,-3.97613 2.5,-4.69428 0,-3.68544 -13.667,1.39031 -20.53056,7.62479 -2.76681,2.51322 -7.54092,6.81949 -10.60913,9.56949 -7.23932,6.48852 -18.61889,23.74649 -18.80211,28.51481 -0.032,0.83314 -0.91268,3.10908 -1.95704,5.05764 -1.39971,2.61154 -1.77328,4.84201 -1.42114,8.48519 0.84476,8.73993 0.9449,8.80066 7.39854,4.48711 z M 34.49893,438.19602 c 6.05557,-7.73254 11.36626,-12.98281 15.10979,-14.9379 2.2911,-1.19654 4.75364,-2.88404 5.47232,-3.75 0.71869,-0.86596 1.82214,-1.57447 2.45212,-1.57447 0.62998,0 2.71238,-1.05395 4.62756,-2.34212 1.91517,-1.28816 4.88888,-2.61576 6.60824,-2.95022 1.71936,-0.33446 5.18668,-1.99877 7.70516,-3.69847 2.51847,-1.69969 6.96172,-3.79078 9.87389,-4.64685 5.4213,-1.59366 13.9301,-4.81509 17.03127,-6.44802 0.95504,-0.50287 2.36578,-0.91432 3.13499,-0.91432 2.05174,0 4.79333,-4.71414 5.16263,-8.87709 0.17676,-1.9926 0.65589,-6.99791 1.06472,-11.12291 1.3112,-13.22966 1.03796,-35.10783 -0.49333,-39.5 -1.86331,-5.34452 -6.34681,-11.77066 -9.79883,-14.04453 -7.31403,-4.8178 -25.12479,-4.83632 -37.18862,-0.0387 -3.51011,1.39593 -6.70151,2.3406 -7.09201,2.09926 -0.39049,-0.24134 -4.23289,1.56882 -8.53867,4.02257 -4.30578,2.45375 -8.31438,4.46574 -8.908,4.47108 -1.40506,0.0126 -10.06257,6.81092 -23.93695,18.79643 -3.3783,2.91837 -6.70486,5.74861 -7.39236,6.28942 -1.42691,1.12245 -1.72245,10.99271 -0.37292,12.45444 0.48239,0.5225 1.63923,3.425 2.57074,6.45 0.93152,3.025 2.84352,7.975 4.24889,11 3.89893,8.39226 4.77162,10.69595 8.14469,21.5 4.14529,13.27748 6.1586,21.32872 6.1586,24.62831 0,2.86427 0.87742,5.87169 1.71307,5.87169 0.2745,0 1.46385,-1.23194 2.64301,-2.73763 z m 139.64392,-52.64891 c 6.325,-0.82125 15.61235,-2.03653 20.63856,-2.70062 l 9.13855,-1.20745 1.22811,-4.10269 c 0.67546,-2.25649 1.67914,-5.4527 2.23041,-7.1027 3.87846,-11.60862 5.16439,-36.12377 2.51782,-48 -1.5137,-6.79259 -6.48607,-17.0529 -9.64817,-19.90866 -2.62813,-2.37353 -5.65273,-1.27097 -9.20461,3.35534 -1.32037,1.71977 -3.56016,4.57281 -4.97731,6.34009 -3.19589,3.98549 -8.92336,14.03718 -8.92336,15.66048 0,0.66209 -1.8,4.28583 -4,8.05275 -2.2,3.76692 -4,7.49689 -4,8.28883 0,0.79193 -2.25,5.79294 -5,11.11335 -2.75,5.3204 -5,10.31618 -5,11.10172 0,1.32005 -0.48497,2.62827 -4.07638,10.9961 -1.46967,3.42427 -3.88609,9.82552 -3.90856,10.35405 -0.0197,0.46384 8.71083,-0.38722 22.98494,-2.24059 z m 58.93082,204.41353 c 1.95796,-1.72404 3.61147,-2.11684 8.5,-2.0192 3.33805,0.0667 9.44418,-0.37435 13.56918,-0.98004 15.88191,-2.332 26.37447,-2.79296 28.20904,-1.23928 0.93998,0.79606 3.18998,1.77677 5,2.17937 1.95433,0.43469 -0.76647,0.62774 -6.69899,0.47531 -5.49447,-0.14118 -10.71343,0.13051 -11.59768,0.60375 -0.88426,0.47324 -9.22019,1.0797 -18.5243,1.34768 -9.3041,0.26799 -17.81015,0.77651 -18.90231,1.13004 -1.69085,0.54732 -1.62475,0.3249 0.44506,-1.49763 z m 72.81918,-2.78284 c -7.21463,-1.61111 9.4271,-5.61083 22.39162,-5.38167 5.3029,0.0937 10.9279,-0.33432 12.5,-0.95123 1.57211,-0.61691 8.03338,-1.30235 14.35838,-1.52319 6.325,-0.22085 13.975,-0.75284 17,-1.1822 3.85194,-0.54673 7.18021,-0.34273 11.10729,0.68081 5.35278,1.39513 5.86965,1.35497 11.38764,-0.88461 5.48719,-2.22709 5.84605,-2.25622 7.07581,-0.57444 1.13498,1.55219 1.74869,1.62206 4.95442,0.56408 2.67695,-0.88348 3.95632,-0.91022 4.7669,-0.0996 0.60937,0.60937 2.8445,1.10794 4.96696,1.10794 2.12246,0 3.61007,0.40281 3.3058,0.89513 -0.30427,0.49232 -4.19413,0.919 -8.64413,0.94819 -4.74971,0.0311 -8.68853,0.54904 -9.53808,1.2541 -0.98905,0.82085 -7.84718,1.30678 -21.66489,1.53508 -11.11974,0.18372 -22.46772,0.58846 -25.21772,0.89943 -2.75,0.31096 -11.64031,0.74367 -19.75624,0.96157 -8.11593,0.2179 -15.21841,0.68181 -15.78328,1.03092 -1.22526,0.75725 -10.72482,1.2748 -13.21048,0.71973 z m 116.73236,-7.2156 c 1.24547,-2.01521 7.14473,-4.02855 11.80402,-4.02855 2.39284,0 6.56979,-0.62213 9.28212,-1.38252 2.71232,-0.76039 8.68237,-1.42837 13.26677,-1.48442 4.5844,-0.056 10.13061,-0.58533 12.32492,-1.17619 2.1943,-0.59087 10.14343,-1.02025 17.66473,-0.95417 7.52129,0.0661 16.15008,-0.42228 19.17508,-1.08522 3.025,-0.66294 9.55,-1.27501 14.5,-1.36014 4.95,-0.0851 10.575,-0.65516 12.5,-1.26671 4.41356,-1.40215 17.08972,-2.64668 23,-2.25811 5.18925,0.34117 8.16891,0.21022 16.5,-0.72517 3.3,-0.37051 11.85,-0.74014 19,-0.82139 7.15,-0.0813 13.225,-0.26134 13.5,-0.40018 2.48767,-1.25599 22.79538,-2.26566 24.73127,-1.2296 1.41874,0.75928 2.29552,0.71691 3.16509,-0.15298 1.15889,-1.15932 20.30623,-2.13658 31.85364,-1.62579 0.9625,0.0426 7.825,-0.23498 15.25,-0.6168 7.425,-0.38182 16.2,-0.64256 19.5,-0.57943 3.3,0.0631 8.19481,-0.34186 10.87735,-0.89996 3.23091,-0.67219 5.28123,-0.67954 6.07379,-0.0218 0.80618,0.66907 1.59616,0.59299 2.42186,-0.23324 0.84205,-0.8426 6.13733,-1.2989 16.92621,-1.45856 14.70066,-0.21755 36.93402,-0.90504 54.20079,-1.67597 4.125,-0.18418 7.9649,0.0315 8.5331,0.47916 0.5682,0.44772 3.0432,0.35112 5.5,-0.21467 2.6448,-0.60909 24.6583,-1.13954 53.9669,-1.30042 27.225,-0.14945 50.7433,-0.61088 52.263,-1.0254 1.6265,-0.44369 3.2883,-0.3177 4.0402,0.30632 0.8357,0.69353 5.7578,0.86404 14.237,0.49318 7.1279,-0.31175 17.2348,-0.6418 22.4598,-0.73344 5.225,-0.0916 9.9989,-0.47556 10.6087,-0.85317 0.6097,-0.37761 4.6597,-0.0533 9,0.72064 4.3402,0.77397 8.7913,1.35599 9.8913,1.29338 5.4393,-0.30956 7.5,0.27462 7.5,2.12616 0,2.38006 -3.7394,3.18723 -9.1419,1.97336 -2.1924,-0.4926 -4.4577,-0.60424 -5.034,-0.24809 -0.5762,0.35615 -1.4131,0.0563 -1.8597,-0.66627 -0.6693,-1.08296 -1.0944,-1.0794 -2.4194,0.0203 -1.3648,1.13263 -1.8294,1.04742 -3.0769,-0.56431 -1.4291,-1.8463 -1.5243,-1.83362 -3.4688,0.4624 -1.0996,1.29844 -1.9989,1.97344 -1.9985,1.5 4e-4,-0.47343 -4.3871,-0.6938 -9.75,-0.4897 -12.7054,0.48351 -15.0537,0.51742 -19.2508,0.27798 -1.925,-0.10983 -5.975,-0.23374 -9,-0.27536 -3.025,-0.0416 -6.175,-0.0915 -7,-0.11092 -0.825,-0.0194 -6.3333,0.26911 -12.2408,0.64111 -6.7349,0.4241 -11.4528,0.29526 -12.65,-0.34545 -1.4595,-0.78108 -2.0476,-0.66148 -2.4962,0.50764 -0.4546,1.18473 -1.435,1.36992 -4.3499,0.82165 -2.0697,-0.38928 -8.4881,-0.80075 -14.2631,-0.91437 -5.775,-0.11361 -11.175,-0.31754 -12,-0.45316 -0.825,-0.13562 -4.0376,0.0518 -7.1392,0.41647 -3.1016,0.36468 -16.6016,0.8481 -30,1.07426 -13.3984,0.22616 -31.3358,0.90953 -39.8608,1.51859 -8.525,0.60906 -16.625,1.11709 -18,1.12897 -1.375,0.0119 -12.78891,-0.0137 -25.36424,-0.0569 -12.57534,-0.0432 -23.29741,0.18926 -23.82683,0.51646 -0.52941,0.32719 -7.1155,0.76407 -14.63575,0.97083 -49.64911,1.36506 -59.38254,1.71122 -81.67318,2.90466 -5.5,0.29447 -17.65,0.76786 -27,1.05199 -9.35,0.28412 -18.57997,0.94099 -20.51104,1.45971 -1.93107,0.51871 -5.98107,0.93364 -9,0.92206 -7.53957,-0.0289 -18.51119,0.64159 -30.98896,1.89381 -5.775,0.57956 -17.7,1.54731 -26.5,2.15054 -8.8,0.60324 -17.8,1.55085 -20,2.1058 -2.2,0.55495 -6.025,0.98255 -8.5,0.95022 -9.53592,-0.12455 -28.7043,0.99325 -33,1.92438 -2.475,0.53648 -8.05037,1.2755 -12.38972,1.64225 -6.1291,0.51802 -7.71972,0.39176 -7.12792,-0.56579 z m 100.63741,-61.57418 -3.38023,-1.46734 0.47738,-13.24351 c 0.51883,-14.39333 1.41072,-17.46273 8.78793,-30.24352 3.99912,-6.92835 22.14543,-25.39437 27.40934,-27.89226 4.48828,-2.12983 5.38619,-3.60774 2.19188,-3.60774 -1.38158,0 -3.60663,-0.49876 -4.94456,-1.10837 -4.40319,-2.00622 -4.26686,-13.57909 0.29912,-25.39163 2.15984,-5.58765 5.31663,-20.55608 4.50614,-21.36656 -0.26106,-0.26106 -1.48538,0.44588 -2.72071,1.57099 -1.23533,1.1251 -3.25856,2.56771 -4.49606,3.20579 -1.2375,0.63808 -2.25,1.78957 -2.25,2.55885 0,0.76929 -3.96793,4.5672 -8.81763,8.43981 -4.8497,3.8726 -9.44656,8.21625 -10.21525,9.65255 -1.77537,3.31732 -8.1463,8.39423 -11.7218,9.34094 -1.51638,0.40151 -3.31909,1.90769 -4.02707,3.36466 -1.99253,4.10051 -6.01248,6.73297 -10.28168,6.73297 -6.20401,0 -8.81041,-4.65891 -7.42478,-13.27173 0.77485,-4.81629 8.12853,-20.72827 9.57952,-20.72827 0.527,0 1.37988,-1.10913 1.89528,-2.46473 0.5154,-1.35561 2.55541,-5.92133 4.53336,-10.14605 1.97794,-4.22472 4.25179,-10.24009 5.05299,-13.36748 1.28277,-5.00714 1.27835,-6.19179 -0.0371,-9.92003 -2.5063,-7.10373 -5.18697,-10.10171 -9.03251,-10.10171 -1.84826,0 -3.95512,0.63071 -4.6819,1.40157 -9.05479,9.60393 -10.82143,11.72423 -10.82143,12.98779 0,0.81095 -1.35,2.43574 -3,3.61064 -1.65,1.1749 -3,2.93803 -3,3.91806 0,0.98002 -1.25307,3.53688 -2.7846,5.6819 -1.53154,2.14502 -3.29965,5.47504 -3.92914,7.40004 -2.25768,6.90401 -4.21613,11.58779 -7.10828,17 -3.93275,7.35951 -11.58858,22.81777 -13.02627,26.30196 -1.57831,3.82497 -7.53666,6.36516 -10.81494,4.61068 -2.01498,-1.07839 -2.33677,-2.00936 -2.33677,-6.76062 0,-5.97073 0.21067,-6.78658 6.36573,-24.65202 2.27385,-6.6 5.083,-12.9 6.24256,-14 1.15956,-1.1 2.33291,-3.35 2.60744,-5 0.27453,-1.65 1.5029,-6.6 2.72971,-11 2.68001,-9.61201 2.45608,-17.99141 -0.54014,-20.21143 -2.65767,-1.96918 -8.85961,-1.02998 -14.6553,2.21935 -2.6125,1.46469 -4.76431,2.9621 -4.7818,3.32757 -0.0175,0.36548 -0.67558,1.51489 -1.46242,2.55424 -1.90705,2.51907 -9.50578,3.10866 -9.50578,0.73756 0,-2.3466 11.74356,-13.02701 19.10706,-17.37729 8.34335,-4.92916 12.85903,-5.06832 17.10127,-0.52698 4.05245,4.33815 4.84579,6.7775 5.51032,16.94298 0.54687,8.36559 -0.44362,14.0881 -3.69263,21.334 -3.06557,6.83681 -5.02602,11.92556 -5.02602,13.04608 0,0.71051 -0.61528,2.56581 -1.3673,4.12288 -6.12193,12.67568 -6.35198,13.33104 -4.67962,13.33104 0.5242,0 1.69996,-1.6875 2.6128,-3.75 0.91285,-2.0625 4.05472,-8.73017 6.98195,-14.81705 2.92723,-6.08688 5.61409,-12.22991 5.97081,-13.65118 0.35671,-1.42127 1.46311,-3.45843 2.45865,-4.52702 0.99555,-1.06859 2.59805,-3.47556 3.56111,-5.34882 1.43471,-2.79066 9.82564,-14.38569 13.9616,-19.29289 0.55,-0.65256 2.575,-2.28272 4.5,-3.62258 1.925,-1.33986 4.37235,-3.23583 5.43856,-4.21328 2.59406,-2.37811 4.70943,-2.24254 10.87337,0.69685 11.21923,5.3501 15.12768,21.30602 8.42253,34.38422 -18.42421,35.93586 -19.52292,38.46188 -17.84781,41.03347 0.74495,1.14363 1.50434,0.97395 4.25995,-0.95182 1.84437,-1.28895 3.5784,-2.63197 3.8534,-2.9845 0.275,-0.35253 2.7244,-2.32673 5.44311,-4.38711 2.7187,-2.06039 6.5437,-5.26082 8.5,-7.11209 8.20398,-7.76352 17.62499,-15.4979 20.59312,-16.90637 5.13504,-2.43674 10.27266,-9.29083 12.40526,-16.54983 1.05028,-3.575 2.85701,-9.7452 4.01495,-13.71156 1.4775,-5.06093 3.15121,-8.32048 5.61235,-10.93006 1.92885,-2.04517 3.26812,-4.34101 2.97615,-5.10186 -1.24471,-3.24368 7.61333,-12.4905 16.83101,-17.56972 3.89515,-2.14634 6.19412,-2.6868 11.429,-2.6868 6.1841,0 6.7296,0.19276 9.68913,3.42381 3.10287,3.38755 3.11855,3.45772 1.47999,6.62632 -0.91084,1.76139 -3.49663,5.05818 -5.74618,7.3262 -2.24956,2.26802 -6.77168,6.82367 -10.04916,10.12367 -3.27749,3.3 -6.26381,7.0125 -6.63628,8.25 -0.37248,1.2375 -1.0566,2.25 -1.52028,2.25 -0.46368,0 -4.50708,2.99322 -8.98532,6.65159 -7.83461,6.40026 -11.03685,10.42471 -11.03685,13.87069 0,1.42295 -2.0045,8.22519 -7.61792,25.85127 -0.85365,2.68045 -1.80655,7.33905 -2.11756,10.35245 -0.53636,5.19687 -0.46764,5.41748 1.335,4.28582 3.01343,-1.89177 15.21013,-20.08135 21.99347,-32.80005 1.9688,-3.69147 5.31725,-9.86177 7.44099,-13.71177 2.12374,-3.85 4.9481,-9.2819 6.27636,-12.0709 1.76095,-3.69753 3.38862,-5.5329 6.00986,-6.77676 1.97716,-0.93822 3.86552,-2.14382 4.19634,-2.6791 1.04253,-1.68685 5.44857,-1.05891 8.52395,1.21482 2.55529,1.88921 2.95951,2.8354 2.95951,6.92764 0,7.344 -1.96069,19.7028 -3.9322,24.78573 -2.38737,6.15514 -3.36169,12.7989 -2.00036,13.64025 1.45342,0.89826 9.82417,-3.63686 10.47286,-5.67399 0.50497,-1.58585 11.22779,-6.86769 13.94228,-6.86769 0.74291,0 1.57773,-0.5625 1.85514,-1.25 0.30572,-0.75766 0.53548,-0.57199 0.58333,0.47141 0.0521,1.13552 -1.02719,2.00287 -3.17105,2.54838 -1.84988,0.47071 -3.67526,1.77545 -4.23713,3.0286 -0.54292,1.21088 -1.38351,2.20161 -1.86798,2.20161 -0.48447,0 -2.41843,1.35 -4.29767,3 -1.87925,1.65 -4.36128,3 -5.51563,3 -1.85433,0 -5.70715,3.23625 -14.99679,12.59686 -1.46586,1.47706 -2.94734,4.18947 -3.29217,6.02758 -0.34483,1.83811 -2.39201,6.79339 -4.54929,11.01173 -2.15728,4.21834 -3.71506,8.00507 -3.46174,8.41497 0.5653,0.91467 -6.08144,14.55261 -7.52835,15.44685 -0.57271,0.35395 -2.16892,2.7492 -3.54715,5.32278 -4.10711,7.66926 -7.70215,13.64507 -8.54245,14.19958 -0.43369,0.2862 -1.22931,1.67969 -1.76803,3.09665 -0.54308,1.42841 -2.57596,3.33386 -4.56256,4.27656 -2.16932,1.02941 -3.58306,2.41611 -3.58306,3.51452 0,2.48919 -15.83673,18.44223 -22.5,22.66526 -1.65,1.04573 -4.35,3.14244 -6,4.65937 -3.46367,3.18431 -8.81225,3.6387 -14.38023,1.22166 z m 16.12453,-10.0807 c 1.7769,-0.91887 4.40531,-2.92808 5.84092,-4.4649 1.43561,-1.53682 3.7718,-3.08576 5.19154,-3.4421 1.54787,-0.38849 3.18593,-1.91277 4.09145,-3.80727 0.83057,-1.73767 3.7074,-5.6344 6.39298,-8.6594 2.68557,-3.025 6.19976,-8.12267 7.80931,-11.32815 1.60955,-3.20548 3.70972,-6.66888 4.66704,-7.69644 0.95731,-1.02756 2.85113,-4.29622 4.20848,-7.26369 1.35735,-2.96747 3.11813,-5.93503 3.91283,-6.59458 0.79471,-0.65955 1.72961,-2.41822 2.07757,-3.90816 0.34795,-1.48994 1.24225,-4.05898 1.98734,-5.70898 5.06876,-11.22482 6.47144,-16.5 4.38736,-16.5 -0.74128,0 -3.58953,1.86278 -6.32945,4.1395 -2.73992,2.27673 -6.40294,4.74054 -8.14005,5.47514 -1.73711,0.7346 -3.31211,1.68432 -3.5,2.1105 -0.18789,0.42617 -1.57293,1.46198 -3.07786,2.3018 -4.76318,2.65807 -21.77068,18.12277 -24.84518,22.59141 -1.62439,2.36096 -3.83662,4.91126 -4.91608,5.66735 -1.07946,0.75608 -2.6398,2.99533 -3.46743,4.97612 -0.82762,1.98078 -1.96159,3.88375 -2.51992,4.22882 -0.55833,0.34506 -1.01792,1.61334 -1.02131,2.81838 -0.003,1.20504 -0.67839,3.47992 -1.5,5.05529 -0.82161,1.57537 -1.49384,3.56083 -1.49384,4.41214 0,0.85131 -1.15945,3.52628 -2.57655,5.94439 -2.45182,4.18371 -2.49699,4.51797 -0.93314,6.90472 0.90388,1.37949 2.50526,3.37001 3.55862,4.42337 2.05277,2.05277 3.42086,1.82798 10.19537,-1.67526 z m 34.2557,-75.40571 c 1.1,-0.95371 3.575,-2.52333 5.5,-3.48805 1.925,-0.96472 5.62052,-3.37985 8.21227,-5.36697 2.59175,-1.98712 5.79461,-4.37646 7.11747,-5.30966 1.39271,-0.98247 3.12994,-3.92917 4.12685,-7 0.94692,-2.9168 2.62532,-6.7772 3.72978,-8.57866 1.10447,-1.80147 1.75653,-3.93104 1.44902,-4.73239 -0.30751,-0.80135 0.14013,-3.37743 0.99476,-5.72462 1.71023,-4.69708 3.37792,-20.76761 2.15513,-20.76761 -0.99869,0 -6.78528,6.05343 -6.78528,7.09818 0,0.93187 -5.82102,9.77843 -7.71388,11.72325 -0.70736,0.72678 -1.28612,1.80931 -1.28612,2.40561 0,0.5963 -1.125,2.55913 -2.5,4.36185 -1.375,1.80272 -2.5,3.87823 -2.5,4.61225 0,0.73403 -1.125,2.99018 -2.5,5.01367 -1.375,2.0235 -2.5,4.06553 -2.5,4.53786 0,0.47232 -1.1556,2.4087 -2.568,4.30305 -3.16536,4.24547 -8.98805,14.65596 -9.89307,17.68799 -0.5563,1.86376 -0.3623,2.13487 1.14568,1.60099 0.99846,-0.3535 2.71539,-1.42303 3.81539,-2.37674 z m 3.46235,-62.40847 c 1.39571,-1.34228 5.95759,-5.72978 10.13752,-9.75 4.17992,-4.02022 9.94182,-10.17467 12.80421,-13.67655 5.82025,-7.12057 6.40863,-10.42305 1.94897,-10.93942 -3.49359,-0.40451 -9.706,2.25042 -10.5563,4.51133 -0.37132,0.98733 -3.24363,4.79034 -6.38291,8.45112 -4.39369,5.12358 -5.96173,7.84008 -6.81081,11.79922 -0.60667,2.82879 -1.10303,5.74362 -1.10303,6.4774 0,0.73378 -0.9,1.5695 -2,1.85716 -1.1,0.28765 -2,1.24014 -2,2.11663 0,2.21146 1.00578,1.99649 3.96235,-0.84689 z m 393.03765,96.54365 c -0.825,-0.45982 -4.65,-1.13109 -8.5,-1.4917 -3.85,-0.36062 -8.35,-0.86273 -10,-1.11581 -1.65,-0.25307 -7.275,-0.67928 -12.5,-0.94713 -5.225,-0.26784 -13.6981,-0.9853 -18.8292,-1.59434 -5.1311,-0.60905 -9.8858,-0.89377 -10.5661,-0.63272 -2.1364,0.81984 -42.9849,-1.32844 -45.4945,-2.39262 -3.0191,-1.28017 -15.4251,-2.98469 -24.7951,-3.40671 -3.9517,-0.17798 -7.6802,-0.6297 -8.2855,-1.00383 -1.9325,-1.19436 -14.4541,-3.01792 -28.0296,-4.08204 -6.515,-0.51068 -7.7916,-0.93641 -9.72053,-3.24153 -1.57762,-1.88532 -2.53043,-2.34375 -3.29086,-1.58332 -0.76042,0.76042 -4.31575,0.55018 -12.27946,-0.72613 -26.11191,-4.18484 -42.24,-8.53496 -56.70915,-15.2958 -3.025,-1.41346 -6.06712,-2.57432 -6.76026,-2.57969 -2.27691,-0.0177 -11.63926,-7.06428 -16.9576,-12.76323 -7.42354,-7.95483 -8.82821,-11.23579 -8.56107,-19.99654 0.27475,-9.01062 -1.42907,-9.67404 -5.07146,-1.97466 -1.3726,2.90144 -3.43028,6.12118 -4.57263,7.15499 -1.14234,1.0338 -2.07698,2.43441 -2.07698,3.11245 0,0.67804 -1.48766,3.42079 -3.30591,6.09501 -1.81825,2.67421 -3.93268,6.43721 -4.69873,8.36221 -4.8942,12.29852 -18.85682,19.23294 -23.02899,11.43715 -2.31329,-4.32241 2.24557,-19.23754 10.52583,-34.43715 1.34831,-2.475 2.46414,-5.32325 2.47963,-6.32946 0.0236,-1.53531 -0.49436,-1.72362 -3.22183,-1.17121 -1.7875,0.36203 -4.46928,1.52278 -5.95951,2.57945 -2.74482,1.94626 -5.79049,2.55497 -5.79049,1.1573 0,-0.42016 2.3625,-1.84933 5.25,-3.17593 2.8875,-1.32661 6.68248,-3.45785 8.43328,-4.73608 1.7508,-1.27824 3.59759,-2.32407 4.10398,-2.32407 0.50638,0 2.2239,-1.15003 3.81672,-2.55561 1.59281,-1.40559 4.02702,-3.54309 5.40936,-4.75 1.38234,-1.20692 3.70383,-2.72856 5.15886,-3.38142 2.98143,-1.33776 11.40192,-7.55499 14.11676,-10.42305 0.98392,-1.03946 2.39828,-1.88992 3.14301,-1.88992 0.74473,0 1.60176,-0.64551 1.90451,-1.43447 0.45398,-1.18305 1.11324,-1.22687 3.76129,-0.25 6.49516,2.39606 8.63455,10.91695 5.34179,21.27554 -0.85824,2.69991 -1.74154,8.6032 -1.96289,13.11841 -0.34289,6.9945 -0.0552,8.99246 1.94376,13.5 3.06955,6.92157 7.23551,10.1334 23.0687,17.78527 16.40541,7.9284 22.5923,10.15747 29.77356,10.72708 4.2359,0.33599 6.02081,0.93938 6.73692,2.27743 0.63069,1.17847 1.67977,1.63584 2.97515,1.29709 1.28265,-0.33542 2.22644,0.0644 2.62911,1.11374 0.46838,1.22056 1.42544,1.49353 3.76215,1.07301 1.72369,-0.31019 5.38398,-0.079 8.13398,0.51381 2.75,0.59278 6.575,1.27106 8.5,1.50728 1.925,0.23622 5.75,0.90772 8.5,1.49222 2.75,0.5845 8.825,1.6873 13.5,2.45069 4.675,0.76338 11.3771,2.10991 14.8935,2.99229 3.5164,0.88238 7.2509,1.33217 8.2989,0.99954 1.0559,-0.33511 3.0405,0.13885 4.4508,1.06291 1.4013,0.91822 3.514,1.42572 4.701,1.12925 1.1857,-0.29614 3.9558,-0.0873 6.1558,0.4642 9.216,2.31008 18.918,3.34414 27.1814,2.89706 2.9749,-0.16095 5.0756,0.41046 7.2803,1.98038 2.5652,1.82657 3.9118,2.09724 7.8186,1.57157 2.5973,-0.34947 9.4415,0.0333 15.2197,0.85125 5.775,0.81747 10.8791,1.11128 11.3424,0.65293 1.1947,-1.18174 8.8506,-0.0516 10.7388,1.58519 0.8696,0.75388 1.8497,1.1021 2.178,0.77381 0.9232,-0.92323 30.6891,-0.43502 35.2181,0.57765 2.2125,0.49469 5.2602,1.15898 6.7727,1.47621 3.4477,0.7231 3.5465,2.8547 0.2029,4.37814 -2.9577,1.34764 -2.5512,1.32357 -4.4529,0.26366 z M 661.35823,414.38697 c 1.10177,-1.40067 3.45097,-4.66317 5.22045,-7.25 2.96989,-4.34173 4.65567,-7.232 12.83913,-22.01271 4.50524,-8.1372 2.68006,-8.16527 -6.05972,-0.0932 -2.73775,2.52859 -5.73468,4.88791 -6.65986,5.24294 -0.92518,0.35502 -1.38988,1.11838 -1.03267,1.69636 0.35721,0.57798 0.21505,1.59366 -0.3159,2.25706 -0.53095,0.66341 -1.73504,3.9062 -2.67574,7.2062 -0.9407,3.3 -2.29021,6.675 -2.99891,7.5 -1.57755,1.83643 -2.54283,8 -1.25289,8 0.51309,0 1.83434,-1.14601 2.93611,-2.54668 z m 324.78462,51.54668 c 0,-0.55 0.45,-1 1,-1 0.55,0 1,0.45 1,1 0,0.55 -0.45,1 -1,1 -0.55,0 -1,-0.45 -1,-1 z"
       id="path3347"
       inkscape:connector-curvature="0" />
  </g>
</svg>
